<?xml version="1.0" encoding="UTF-8" standalone="no"?>
<!-- Created with Inkscape (http://www.inkscape.org/) -->

<svg
   version="1.1"
   id="svg133"
   width="512"
   height="512"
   viewBox="0 0 512.00001 512"
   sodipodi:docname="ACTION-logo-rev.svg"
   inkscape:export-filename="ACTION-logo-black.png"
   inkscape:export-xdpi="75.294121"
   inkscape:export-ydpi="75.294121"
   inkscape:version="1.2 (dc2aedaf03, 2022-05-15)"
   xmlns:inkscape="http://www.inkscape.org/namespaces/inkscape"
   xmlns:sodipodi="http://sodipodi.sourceforge.net/DTD/sodipodi-0.dtd"
   xmlns="http://www.w3.org/2000/svg"
   xmlns:svg="http://www.w3.org/2000/svg">
  <sodipodi:namedview
     id="namedview214"
     pagecolor="#ffffff"
     bordercolor="#000000"
     borderopacity="0.25"
     inkscape:showpageshadow="2"
     inkscape:pageopacity="0.0"
     inkscape:pagecheckerboard="0"
     inkscape:deskcolor="#d1d1d1"
     showgrid="false"
     inkscape:zoom="0.74306872"
     inkscape:cx="128.52109"
     inkscape:cy="391.61923"
     inkscape:window-width="1707"
     inkscape:window-height="889"
     inkscape:window-x="-8"
     inkscape:window-y="-8"
     inkscape:window-maximized="1"
     inkscape:current-layer="svg133" />
  <defs
     id="defs137">
    <clipPath
       clipPathUnits="userSpaceOnUse"
       id="clipPath149">
      <path
         d="M 0,489.6 H 489.6 V 0 H 0 Z"
         id="path147" />
    </clipPath>
  </defs>
  <g
     id="g141"
     transform="matrix(1.3112556,0,0,-1.3112562,-66.101541,573.31609)">
    <g
       id="g143"
       style="fill:#000000">
      <g
         id="g145"
         clip-path="url(#clipPath149)"
         style="fill:#000000">
        <g
           id="g151"
           transform="translate(162.3921,161.418)"
           style="fill:#000000">
          <path
             d="m 0,0 c -0.075,0.213 -0.115,0.44 -0.113,0.68 0,0.068 0.373,23.634 0.576,51.612 -4.005,4.819 -6.461,11.294 -6.461,18.395 0,7.248 2.56,13.843 6.714,18.693 0.125,9.12 0.35,17.72 0.806,25.051 0.476,7.666 1.208,14.073 2.342,18.454 1.111,4.286 2.809,8.709 5.072,13.098 v 14.105 c -3.058,0.349 -5.8,1.736 -7.865,3.801 -2.401,2.401 -3.886,5.719 -3.886,9.382 0,3.653 1.484,6.968 3.886,9.373 l 0.005,0.003 0.004,0.005 0.003,0.004 c 2.405,2.399 5.719,3.883 9.37,3.883 3.653,0 6.968,-1.485 9.373,-3.887 l 0.004,-0.005 0.004,-0.003 0.004,-0.004 c 2.399,-2.405 3.883,-5.719 3.883,-9.369 0,-3.663 -1.486,-6.981 -3.887,-9.382 -1.841,-1.842 -4.223,-3.145 -6.886,-3.652 v -7.418 c 5.7,8.62 13.621,16.756 23.608,23.048 14.095,8.88 32.298,14.11 54.152,11.881 14.776,-1.508 26.704,-5.44 36.34,-10.761 0.688,0.317 1.412,0.58 2.165,0.78 1.097,0.291 2.242,0.448 3.411,0.448 3.663,0 6.981,-1.486 9.381,-3.887 2.401,-2.4 3.886,-5.719 3.886,-9.383 0,-0.582 -0.043,-1.184 -0.127,-1.797 -0.029,-0.214 -0.065,-0.426 -0.103,-0.637 4.688,-5.026 8.369,-10.358 11.261,-15.596 l 3.935,0.549 c 0.255,0.035 0.506,0.02 0.741,-0.036 3.734,-0.021 7.048,-2.262 9.392,-5.874 2.192,-3.376 3.548,-7.996 3.548,-13.057 0,-5.06 -1.356,-9.682 -3.548,-13.057 -1.15,-1.772 -2.533,-3.214 -4.085,-4.226 0.677,-7.515 1.194,-16.385 1.566,-25.776 0.441,-11.112 0.683,-23.013 0.75,-34.294 0.118,-19.6 -0.386,-37.187 -0.627,-45.612 -0.065,-2.258 -0.11,-3.853 -0.12,-4.62 0.032,-0.326 0.05,-0.654 0.05,-0.983 0,-8.079 -9.748,-15.165 -25.505,-20.09 -5.862,-1.831 -12.588,-3.393 -19.966,-4.614 l -10e-4,-1.408 c -0.004,-2.401 -0.454,-5.103 -0.015,-6.947 0.448,-1.879 3.439,-4.174 4.781,-5.52 1.019,-1.026 2.42,-2.413 3.825,-3.841 0.329,-0.337 0.913,-1.179 1.195,-1.202 0.918,-0.075 4.837,4.41 5.522,5.02 2.216,1.981 3.996,3.048 5.522,5.02 -1.03,2.043 -1.116,3.555 -0.708,5.511 2.013,9.62 18.034,7.121 15.566,-3.865 -0.672,-2.988 -6.107,-8.088 -11.273,-5.008 -4.051,-2.971 -7.408,-6.644 -11.282,-9.798 4.149,-4.515 8.232,-8.265 12.912,-12.966 1.471,-1.479 3.694,-3.207 4.066,-4.563 0.619,-2.269 -0.015,-5.884 -0.02,-8.623 -0.018,-8.406 -0.038,-16.956 -0.056,-25.638 0.839,-1.147 2.229,-1.355 3.11,-2.163 4.749,-4.352 2.05,-13.615 -5.061,-13.884 -9.273,-0.354 -11.215,13.492 -2.602,15.817 0.018,8.159 0.038,16.088 0.053,24.44 0.004,2.594 0.544,5.698 0.017,7.906 -0.541,2.265 -5.688,6.192 -7.411,7.924 -7.702,7.733 -15.604,15.624 -22.712,23.289 l 0.017,9.798 c -4.22,-0.598 -8.625,-1.09 -13.182,-1.463 l -0.001,-2.321 c -0.005,-2.741 -0.554,-5.896 -0.014,-8.146 0.489,-2.05 5.741,-6.486 7.407,-8.159 6.579,-6.606 12.468,-12.279 19.367,-19.209 1.343,-1.348 3.304,-3.055 3.584,-4.081 0.481,-1.749 -0.392,-3.821 -0.01,-5.033 0.956,-1.062 2.108,-1.269 2.872,-1.923 4.782,-4.09 2.837,-13.747 -4.581,-14.125 -5.096,-0.262 -10.149,4.742 -8.124,10.798 0.815,2.449 2.935,3.643 5.281,5.021 -0.128,0.905 0.176,2.168 0.005,3.115 -0.195,1.088 -1.133,2.096 -2.147,3.12 -0.52,0.52 -2.343,2.625 -2.631,2.641 -0.699,0.029 -4.879,-4.62 -5.523,-5.261 -2.121,-2.113 -4.009,-3.98 -5.042,-5.499 -0.008,-3.995 -0.018,-7.985 -0.026,-11.979 0.681,-1.187 1.997,-1.217 2.873,-1.925 4.166,-3.372 3.6,-12.837 -3.145,-14.129 -5.863,-1.121 -11.577,3.858 -9.561,10.564 0.728,2.43 2.898,3.757 5.282,5.019 0.165,4.637 -0.294,9.9 0.268,14.135 1.341,2.658 3.163,4.109 5.525,6.458 0.86,0.858 1.867,1.621 3.119,2.87 0.406,0.399 2.872,2.613 2.882,2.868 0.022,0.477 -4.974,5.235 -5.499,5.761 -4.324,4.344 -6.961,6.991 -11.236,11.286 -1.293,1.299 -4.966,3.812 -5.499,5.761 -0.655,2.401 0.013,5.87 0.019,8.625 l 0.006,3.417 c -3.45,-0.217 -6.978,-0.37 -10.568,-0.449 0.006,-3.48 0.012,-6.72 0.007,-9.414 -0.009,-3.576 -0.703,-7.716 -0.023,-10.542 0.318,-1.328 2.238,-2.729 3.108,-3.602 2.311,-2.322 3.886,-4.142 6.454,-6.721 1.004,-1.009 2.757,-2.086 3.106,-3.361 0.508,-1.847 -0.009,-5.079 -0.016,-7.665 -0.004,-2.615 -0.009,-5.178 -0.015,-7.428 -0.007,-3.361 1.208,-12.758 -2.183,-12.933 -2.396,-0.127 -2.364,2.023 -2.385,4.795 -0.046,5.364 0.017,9.115 0.028,14.375 0.006,2.37 0.473,5.031 0.017,6.948 -0.431,1.803 -2.551,3.281 -3.824,4.563 -1.557,1.561 -2.352,2.435 -4.306,3.841 -0.024,-11.481 -0.051,-23.7 -0.078,-35.941 -0.001,-1.759 -0.348,-4.124 -0.007,-5.031 0.268,-0.726 1.586,-1.329 2.391,-1.921 1.738,-1.279 3.184,-3.159 3.341,-5.758 0.313,-5.17 -4.3,-9.843 -10.081,-8.364 -3.517,0.903 -7.111,5.27 -5.489,10.554 0.745,2.417 2.687,3.52 5.283,5.021 0.029,13.896 0.059,27.792 0.089,41.688 -1.574,-1.049 -2.78,-2.29 -4.32,-3.823 -1.172,-1.167 -3.623,-2.877 -4.084,-4.545 -0.497,-1.803 -0.011,-4.732 -0.014,-7.188 -0.012,-5.079 0.04,-8.741 -0.031,-14.374 -0.032,-2.647 0.004,-4.711 -2.168,-4.787 -2.489,-0.089 -2.391,2.175 -2.383,5.276 0.01,5.875 0.018,9.385 0.031,15.093 0.005,2.573 -0.464,5.472 0.016,7.431 0.567,2.316 4.863,5.318 6.483,6.931 1.151,1.147 2.107,2.1 3.362,3.348 0.758,0.754 2.868,2.667 3.121,3.589 0.765,2.754 0.016,7.185 0.024,10.779 l 0.016,9.105 -1.408,-0.005 c -3.17,0 -6.298,0.056 -9.376,0.165 l -0.001,-3.013 c -0.005,-2.705 0.584,-5.933 -0.017,-8.385 -0.483,-1.967 -3.973,-4.675 -5.284,-5.98 -4.898,-4.876 -8.839,-8.8 -14.166,-14.103 -0.926,-0.922 -2.863,-2.275 -2.881,-2.63 -0.029,-0.67 2.557,-2.569 3.109,-3.122 3.105,-3.12 6.165,-5.982 8.605,-9.363 -0.009,-4.633 -0.019,-9.263 -0.029,-13.896 0.959,-0.955 2.249,-1.339 3.111,-2.16 4.812,-4.604 1.629,-15.47 -7.458,-13.644 -4.544,0.914 -7.47,6.935 -5.246,11.513 0.987,2.029 2.952,3.03 5.04,4.301 -0.728,3.329 0.969,8.029 0.025,11.981 -0.454,1.902 -3.723,4.46 -5.018,5.76 -0.746,0.75 -1.525,1.533 -2.631,2.64 -0.618,0.62 -2.44,2.631 -2.629,2.642 -0.752,0.033 -4.802,-4.406 -5.043,-5.499 -0.21,-0.951 0.158,-2.337 -0.007,-3.114 0.793,-1.138 2.185,-1.314 3.111,-2.167 3.374,-3.089 2.851,-9.935 -0.747,-12.455 -5.765,-4.04 -15.372,1.438 -12.197,9.61 0.889,2.29 2.708,3.334 5.281,4.78 0.346,1.287 -0.428,3.241 0.009,5.032 0.503,2.052 5.806,6.496 7.444,8.13 6.768,6.74 12.533,12.239 19.448,19.126 1.36,1.353 3.319,3.044 3.603,4.064 0.582,2.1 0.013,5.495 0.019,8.15 l 0.003,2.002 c -4.526,0.239 -8.928,0.595 -13.177,1.054 l -10e-4,-0.874 c -0.003,-2.356 0.501,-5.322 -0.015,-7.428 -0.567,-2.321 -5.323,-5.78 -7.443,-7.891 -6.79,-6.758 -12.279,-12.225 -19.208,-19.127 -1.396,-1.389 -3.326,-3.054 -3.604,-4.065 -0.583,-2.11 -0.011,-5.512 -0.016,-8.147 -0.019,-7.977 -0.035,-16.284 -0.053,-24.438 0.955,-1.031 2.173,-1.297 3.111,-2.161 1.8,-1.666 3.429,-5.544 2.134,-8.871 -2.339,-6.028 -13.568,-7.003 -15.331,0.991 -0.942,4.281 1.498,8.189 5.533,9.814 0.022,9.446 0.036,16.633 0.056,25.875 0.005,2.615 -0.581,5.938 0.017,8.384 0.373,1.531 2.86,3.326 4.084,4.546 3.8,3.783 6.631,6.602 10.803,10.758 0.624,0.619 2.163,2.19 2.161,2.151 0.033,0.715 -4.735,4.755 -5.26,5.282 -1.794,1.802 -3.795,3.115 -5.26,5.044 -4.799,-3.342 -11.124,1.104 -11.969,4.815 -1.088,4.771 2.453,10.002 7.687,10.049 4.508,0.038 10.169,-5.008 7.404,-11.277 2.082,-2.785 4.939,-5.201 7.891,-7.925 0.434,-0.401 2.41,-2.63 2.629,-2.64 0.55,-0.024 2.106,2.097 2.641,2.631 2.535,2.521 5.475,4.907 7.444,7.651 l 0.013,7.393 c -10.208,1.32 -19.403,3.258 -27.106,5.665 -15.757,4.925 -25.506,12.011 -25.506,20.09 z m 152.584,142.259 c -1.48,-0.21 -2.833,-0.405 -3.757,-0.543 -1.095,-0.159 -2.113,0.598 -2.272,1.693 -0.159,1.095 0.598,2.112 1.694,2.272 0.963,0.144 2.615,0.38 4.409,0.634 -2.754,4.768 -6.2,9.581 -10.519,14.103 -0.039,0.035 -0.075,0.07 -0.111,0.107 -2.177,2.269 -4.588,4.475 -7.258,6.573 -2.669,2.099 -5.576,4.075 -8.739,5.88 l -0.087,0.052 c -9.333,5.307 -21.01,9.246 -35.627,10.738 C 69.441,185.897 52.093,180.927 38.688,172.48 27.052,165.149 18.38,155.21 12.948,145.036 V 97.057 c 1.642,0.398 3.346,0.608 5.094,0.608 6.681,0 12.719,-3.058 17.078,-7.997 3.869,-4.385 6.412,-10.258 6.884,-16.773 5.974,1.124 12.434,2.021 19.255,2.649 7.503,0.691 15.39,1.063 23.491,1.063 22.908,0 43.687,-2.915 58.76,-7.624 9.902,-3.094 17.431,-7.044 21.658,-11.555 -0.108,9.26 -0.335,18.796 -0.693,27.855 -0.351,8.859 -0.831,17.23 -1.448,24.402 -0.485,-0.079 -0.98,-0.12 -1.481,-0.12 -3.754,0 -7.088,2.247 -9.443,5.875 -2.191,3.375 -3.547,7.997 -3.547,13.057 0,5.061 1.356,9.681 3.547,13.057 0.157,0.241 0.316,0.476 0.481,0.705 m 9.688,-1.85 c 2.269,0 4.221,-1.516 5.537,-3.965 1.116,-2.072 1.807,-4.893 1.807,-7.964 0,-3.069 -0.691,-5.89 -1.807,-7.963 -1.316,-2.448 -3.268,-3.963 -5.537,-3.963 -2.27,0 -4.221,1.515 -5.538,3.964 -1.116,2.072 -1.807,4.893 -1.807,7.962 0,3.071 0.691,5.892 1.807,7.964 1.317,2.449 3.268,3.965 5.538,3.965 m 2.011,-5.861 c -0.615,1.141 -1.334,1.848 -2.011,1.848 -0.678,0 -1.397,-0.707 -2.011,-1.848 -0.817,-1.517 -1.322,-3.66 -1.322,-6.068 0,-2.406 0.505,-4.55 1.322,-6.066 0.614,-1.142 1.333,-1.849 2.011,-1.849 0.677,0 1.396,0.707 2.011,1.849 0.815,1.516 1.321,3.66 1.321,6.066 0,2.408 -0.505,4.551 -1.321,6.068 m -6.469,7.472 c -0.06,-0.055 -0.123,-0.106 -0.19,-0.154 -0.791,-0.655 -1.523,-1.498 -2.167,-2.491 -1.785,-2.75 -2.889,-6.594 -2.889,-10.878 0,-4.284 1.104,-8.129 2.889,-10.878 1.619,-2.496 3.778,-4.042 6.089,-4.042 2.312,0 4.47,1.546 6.09,4.042 1.784,2.749 2.889,6.594 2.889,10.878 0,4.284 -1.105,8.128 -2.889,10.878 -1.62,2.496 -3.778,4.042 -6.09,4.042 -1.317,0 -2.585,-0.504 -3.732,-1.397 m -44.476,17.83 c 0.177,0.016 0.351,0.009 0.517,-0.019 l 0.27,0.002 c 4.981,0 9.471,-2.366 12.705,-6.192 3.154,-3.732 5.106,-8.868 5.106,-14.516 0,-5.647 -1.952,-10.784 -5.106,-14.516 -3.234,-3.825 -7.724,-6.192 -12.705,-6.192 -4.979,0 -9.469,2.367 -12.702,6.192 -3.154,3.734 -5.107,8.868 -5.107,14.516 0,5.648 1.953,10.783 5.107,14.516 0.291,0.345 0.594,0.678 0.906,0.999 -2.65,-0.288 -5.145,-0.564 -6.693,-0.741 -1.098,-0.124 -2.092,0.664 -2.217,1.763 -0.125,1.099 0.664,2.093 1.762,2.217 4.502,0.516 18.117,1.966 18.157,1.971 m 1.831,-7.774 c 2.809,0 5.305,-1.557 7.069,-4.074 1.616,-2.307 2.618,-5.457 2.618,-8.895 0,-3.44 -1.002,-6.588 -2.618,-8.896 -1.764,-2.516 -4.26,-4.073 -7.069,-4.073 -2.809,0 -5.305,1.557 -7.068,4.073 -1.617,2.308 -2.618,5.456 -2.618,8.896 0,3.438 1.001,6.588 2.618,8.895 1.763,2.517 4.259,4.074 7.068,4.074 m 3.793,-6.362 c -1.016,1.451 -2.362,2.35 -3.793,2.35 -1.43,0 -2.777,-0.898 -3.793,-2.35 -1.163,-1.658 -1.881,-3.993 -1.881,-6.607 0,-2.615 0.718,-4.949 1.881,-6.608 1.016,-1.45 2.363,-2.349 3.793,-2.349 1.431,0 2.777,0.899 3.793,2.349 1.163,1.659 1.882,3.993 1.882,6.608 0,2.614 -0.719,4.949 -1.882,6.607 m 4.811,5.342 c -2.487,2.944 -5.9,4.765 -9.648,4.765 -3.746,0 -7.158,-1.821 -9.645,-4.765 -2.564,-3.035 -4.152,-7.252 -4.152,-11.931 0,-4.678 1.588,-8.896 4.152,-11.931 2.487,-2.944 5.899,-4.765 9.645,-4.765 3.748,0 7.161,1.821 9.648,4.765 2.564,3.035 4.151,7.253 4.151,11.931 0,4.679 -1.587,8.896 -4.151,11.931 M 118.948,40.658 c 6.893,-0.968 14.952,-2.809 22.535,-5.26 5.934,-1.918 11.597,-4.218 16.211,-6.778 l -0.036,5.623 -0.059,9.128 c -3.395,3.067 -8.963,5.78 -15.047,8.022 -8.241,3.033 -17.325,5.156 -23.407,6.15 z m 21.313,-9.068 c -7.987,2.581 -16.525,4.466 -23.567,5.321 l 10e-4,0.006 c -1,0.116 -1.772,0.972 -1.764,2 l 0.243,20.894 c -0.002,0.1 0.003,0.202 0.017,0.305 0.142,1.095 1.145,1.866 2.24,1.724 6.143,-0.817 16.911,-3.155 26.501,-6.686 6.914,-2.547 13.287,-5.742 17.069,-9.497 L 161,45.655 c 0.364,-0.36 0.589,-0.858 0.59,-1.409 l 0.064,-9.987 0.059,-9.178 h -0.001 c 0.002,-0.38 -0.104,-0.764 -0.328,-1.104 -0.605,-0.922 -1.844,-1.178 -2.766,-0.573 -4.717,3.102 -11.312,5.909 -18.357,8.186 m -1.093,139.901 c -1.673,1.676 -3.989,2.712 -6.544,2.712 -0.291,0 -0.576,-0.013 -0.856,-0.038 1.935,-1.255 3.758,-2.563 5.479,-3.916 1.586,-1.247 3.091,-2.537 4.521,-3.861 -0.31,1.978 -1.246,3.75 -2.6,5.103 M 123.252,0.433 c -0.261,-4.651 -0.231,-14.062 -0.209,-21.149 6.936,1.173 13.258,2.653 18.784,4.379 14.015,4.38 22.685,10.149 22.685,16.266 l -0.006,0.242 c -0.018,0.107 -0.029,0.218 -0.03,0.33 l -0.001,0.108 C 163.858,6.472 155.32,11.977 141.827,16.193 127.126,20.787 106.775,23.63 84.261,23.63 61.747,23.63 41.396,20.787 26.696,16.193 12.681,11.813 4.011,6.045 4.011,-0.071 c 0,-6.117 8.67,-11.886 22.685,-16.266 7.367,-2.303 16.154,-4.165 25.921,-5.45 l 0.036,23.004 c 0.606,2.194 4.578,1.624 4.753,-0.051 -0.324,-5.92 -0.272,-15.922 -0.251,-23.5 4.245,-0.467 8.653,-0.827 13.19,-1.07 l 0.042,24.425 c 0.645,2.906 4.671,1.576 4.748,-0.054 -0.309,-6.632 -0.282,-16.404 -0.26,-24.573 3.08,-0.111 6.211,-0.167 9.386,-0.167 l 1.415,0.004 0.042,24.619 c 0.726,2.317 4.451,1.869 4.746,-0.051 -0.252,-5.901 -0.277,-15.587 -0.27,-24.505 3.598,0.081 7.129,0.233 10.579,0.455 l 0.04,23.935 c 0.166,2.008 4.254,2.174 4.729,-0.055 -0.287,-5.661 -0.254,-15.663 -0.235,-23.547 4.571,0.38 8.984,0.881 13.198,1.49 l 0.037,21.913 c 0.407,1.886 3.692,2.362 4.71,-0.052 M 25.042,-33.16 v 0 c 4.017,0.226 4.139,7.659 -0.942,6.711 -4.43,-0.83 -2.956,-6.937 0.942,-6.711 m 125.788,-0.268 v 0 c 4.221,-0.008 4.736,7.584 -0.465,6.708 -4.226,-0.713 -3.344,-6.7 0.465,-6.708 M 41.706,-85.189 v 0 c 4.844,-0.324 4.962,7.571 -0.227,6.71 -4.715,-0.784 -2.663,-6.514 0.227,-6.71 m 92.002,-0.195 v 0 c 3.997,0.245 4.144,7.693 -0.944,6.711 -4.386,-0.848 -2.982,-6.952 0.944,-6.711 M 58.453,-95.527 v 0 c -0.502,-4.29 4.574,-5.125 6.227,-2.649 2.046,3.072 -0.904,6.083 -3.824,5.28 -1.662,-0.458 -2.29,-1.696 -2.403,-2.631 m 51.755,0.61 v 0 c -1.538,-5.765 7.674,-6.296 6.708,-0.495 -0.32,1.91 -2.032,2.973 -4.307,2.406 -1.418,-0.353 -2.194,-1.134 -2.401,-1.911 M 88.139,-107.57 v 0 c 4.454,0.243 3.789,7.163 -0.467,6.95 -1.509,-0.076 -1.958,-0.868 -3.118,-2.15 -0.315,-3.206 1.073,-4.937 3.585,-4.8 m -63.498,-2.259 v 0 c 4.165,0.042 4.511,7.683 -0.704,6.71 -4.212,-0.788 -3.164,-6.754 0.704,-6.71 m 126.266,-0.269 v 0 c 4.477,0.162 4.21,7.526 -0.705,6.708 -4.626,-0.767 -2.8,-6.839 0.705,-6.708 M 8.936,135.868 c -0.46,-1.339 -0.86,-2.67 -1.202,-3.987 C 6.674,127.787 5.98,121.632 5.519,114.196 5.128,107.89 4.906,100.744 4.773,93.182 6.077,94.153 7.47,94.985 8.936,95.66 Z m 4.012,-61.756 c 0,-1.107 -0.899,-2.005 -2.006,-2.005 -1.108,0 -2.006,0.898 -2.006,2.005 V 91.146 C 7.212,90.136 5.632,88.848 4.243,87.334 4.202,87.286 4.158,87.237 4.113,87.192 L 3.959,87.02 c -3.672,-4.163 -5.945,-9.937 -5.945,-16.333 0,-6.371 2.253,-12.122 5.898,-16.28 l 0.023,-0.025 0.08,-0.092 c 0.177,-0.198 0.357,-0.394 0.541,-0.586 0.045,-0.042 0.087,-0.087 0.129,-0.134 3.542,-3.634 8.23,-5.85 13.357,-5.85 5.487,0 10.469,2.535 14.084,6.634 3.673,4.162 5.946,9.935 5.946,16.333 0,6.396 -2.273,12.17 -5.946,16.333 -3.615,4.097 -8.597,6.633 -14.084,6.633 -1.759,0 -3.467,-0.261 -5.094,-0.751 z m 4.049,105.712 c -1.669,1.67 -3.983,2.703 -6.544,2.703 -2.561,0 -4.875,-1.033 -6.545,-2.703 l -0.009,-0.009 c -1.67,-1.669 -2.703,-3.983 -2.703,-6.544 0,-2.556 1.037,-4.871 2.712,-6.546 1.675,-1.674 3.989,-2.711 6.545,-2.711 2.555,0 4.87,1.037 6.544,2.711 1.675,1.675 2.712,3.99 2.712,6.546 0,2.561 -1.033,4.875 -2.704,6.544 z M 4.447,48.438 4.43,48.371 C 4.3,31.924 4.117,17.227 3.998,8.623 c 4.255,4.444 11.722,8.337 21.506,11.395 15.071,4.71 35.85,7.624 58.757,7.624 22.907,0 43.686,-2.914 58.758,-7.624 9.902,-3.096 17.431,-7.044 21.658,-11.556 0.24,8.604 0.606,23.219 0.562,39.488 -0.151,0.281 -0.237,0.603 -0.237,0.945 0,6.117 -8.669,11.885 -22.684,16.264 -14.702,4.594 -35.054,7.436 -57.568,7.436 -8.09,0 -15.852,-0.361 -23.13,-1.031 C 54.652,70.921 48.075,69.996 42.027,68.831 41.622,62.175 39.058,56.168 35.12,51.704 30.761,46.766 24.723,43.708 18.042,43.708 c -5.047,0 -9.729,1.746 -13.595,4.73"
             style="fill:#000000;fill-opacity:1;fill-rule:evenodd;stroke:none"
             id="path153" />
        </g>
        <g
           id="g155"
           transform="translate(149.5571,295.873)"
           style="fill:#000000">
          <path
             d="m 0,0 c -4.04,2.676 -6.526,-8.879 -6.915,-14.222 -0.311,-4.325 0.052,-10.449 1.011,-15.459 0.958,-5.009 2.563,-8.923 4.765,-8.87 0.932,0.034 2.357,1.026 2.694,2.579 0.854,3.677 -0.959,4.737 -1.814,7.914 -1.243,4.659 -1.139,12.87 -0.026,17.6 C 0.648,-6.51 3.211,-2.106 0,0 m 192.482,0.283 c 4.04,2.676 6.526,-8.879 6.915,-14.222 0.311,-4.325 -0.052,-10.449 -1.011,-15.459 -0.958,-5.009 -2.562,-8.923 -4.764,-8.87 -0.932,0.035 -2.358,1.026 -2.694,2.579 -0.854,3.677 0.958,4.738 1.813,7.915 1.244,4.658 1.139,12.869 0.026,17.599 -0.933,3.948 -3.496,8.352 -0.285,10.458 m 21.419,22.635 c 2.433,1.457 4.04,-1.464 5.723,-5.807 1.968,-5.081 3.705,-11.003 4.842,-17.705 1.141,-6.72 1.762,-14.223 1.426,-22.434 -0.182,-4.501 -0.648,-8.475 -1.269,-12.134 -0.623,-3.659 -1.477,-7.018 -2.383,-10.301 -1.476,-5.368 -4.247,-17.047 -8.158,-15.59 -1.943,0.711 -2.46,3.334 -1.503,6.913 0.466,1.65 2.512,4.8 3.03,6.309 1.633,4.642 2.981,9.318 3.782,14.73 0.804,5.431 1.14,11.591 0.802,19.18 -0.283,6.22 -1.164,11.573 -2.382,16.37 -1.217,4.791 -2.797,9.054 -4.507,13.161 -0.958,2.272 -1.89,5.808 0.597,7.308 M 203.644,11.907 c 3.859,2.194 6.034,-7.887 7.226,-12.607 1.399,-5.571 2.047,-12.036 2.047,-18.468 0,-6.44 -0.726,-12.827 -2.125,-18.248 -1.114,-4.449 -3.547,-13.179 -6.629,-12.556 -0.726,0.141 -2.124,1.246 -2.409,3.474 -0.388,3.115 0.777,3.572 1.813,6.291 2.253,5.949 3.496,13.442 3.573,21.074 0.077,7.615 -0.958,15.345 -3.211,21.732 -0.492,1.386 -0.855,1.974 -1.191,2.93 -0.647,1.773 -1.217,5.178 0.906,6.378 M -21.418,22.635 c -2.435,1.456 -4.04,-1.465 -5.724,-5.808 -1.968,-5.08 -3.704,-11.002 -4.842,-17.704 -1.141,-6.721 -1.762,-14.224 -1.426,-22.435 0.182,-4.501 0.648,-8.475 1.27,-12.133 0.622,-3.66 1.476,-7.019 2.383,-10.302 1.476,-5.367 4.247,-17.046 8.157,-15.589 1.943,0.71 2.461,3.334 1.503,6.913 -0.466,1.65 -2.512,4.799 -3.03,6.309 -1.632,4.641 -2.981,9.317 -3.782,14.73 -0.803,5.43 -1.139,11.59 -0.802,19.179 0.284,6.22 1.164,11.573 2.382,16.371 1.217,4.791 2.797,9.054 4.507,13.161 0.958,2.272 1.89,5.808 -0.596,7.308 m 10.256,-11.011 c -3.859,2.193 -6.034,-7.888 -7.226,-12.607 -1.399,-5.572 -2.046,-12.037 -2.046,-18.469 0,-6.439 0.726,-12.826 2.124,-18.248 1.114,-4.449 3.548,-13.178 6.63,-12.555 0.725,0.14 2.124,1.245 2.408,3.474 0.389,3.115 -0.776,3.571 -1.812,6.291 -2.253,5.948 -3.497,13.442 -3.574,21.074 -0.077,7.615 0.958,15.345 3.211,21.732 0.492,1.385 0.855,1.973 1.191,2.93 0.647,1.773 1.217,5.177 -0.906,6.378"
             style="fill:#000000;fill-opacity:1;fill-rule:evenodd;stroke:none"
             id="path157" />
        </g>
        <g
           id="g159"
           transform="translate(245.6436,437.2266)"
           style="fill:#000000">
          <path
             d="m 0,0 c 86.084,0 155.896,-69.812 155.896,-155.896 0,-48.331 -22.006,-91.53 -56.542,-120.127 v 14.674 c 1.021,0.964 2.028,1.942 3.02,2.934 26.203,26.202 42.412,62.399 42.412,102.374 0,39.975 -16.209,76.171 -42.412,102.374 -26.203,26.204 -62.4,42.413 -102.375,42.413 -39.974,0 -76.171,-16.209 -102.374,-42.413 -26.203,-26.203 -42.413,-62.399 -42.413,-102.374 0,-39.975 16.21,-76.172 42.413,-102.374 0.814,-0.814 1.638,-1.618 2.471,-2.412 v -14.732 c -34.217,28.6 -55.992,71.591 -55.992,119.663 C -155.896,-69.812 -86.085,0 0,0 m 99.354,-255.779 v 7.786 c 22.419,24.174 36.134,56.535 36.134,92.097 0,74.815 -60.673,135.489 -135.488,135.489 -74.816,0 -135.49,-60.674 -135.49,-135.489 0,-35.272 13.49,-67.398 35.586,-91.507 v -7.824 c -25.268,25.451 -40.883,60.498 -40.883,99.186 0,38.871 15.761,74.068 41.24,99.546 25.478,25.479 60.675,41.241 99.546,41.241 38.871,0 74.068,-15.762 99.547,-41.241 25.478,-25.478 41.24,-60.675 41.24,-99.546 0,-38.871 -15.762,-74.068 -41.24,-99.547 z"
             style="fill:#000000;fill-opacity:1;fill-rule:evenodd;stroke:none"
             id="path161" />
        </g>
        <g
           id="g163"
           transform="translate(167.8413,361.3247)"
           style="fill:#000000">
          <path
             d="M 0,0 4.807,4.462 -2.88,7.993 Z m -1.44,-12.169 -8.186,27.525 0.28,0.26 26.638,-10.4 -4.571,-4.243 -3.634,1.591 -7.423,-6.889 1.29,-3.766 z m 39.695,46.52 c -1.438,0.579 -2.773,0.895 -4.005,0.934 -1.229,0.048 -2.403,-0.176 -3.516,-0.668 -1.935,-0.857 -3.22,-2.222 -3.857,-4.097 -0.641,-1.878 -0.495,-3.864 0.428,-5.949 0.925,-2.091 2.282,-3.515 4.075,-4.271 1.788,-0.758 3.662,-0.707 5.618,0.158 1.155,0.512 2.199,1.263 3.135,2.256 0.936,0.993 1.763,2.219 2.479,3.693 l 2.339,-6.215 c -0.686,-1.094 -1.527,-2.07 -2.535,-2.928 -1.007,-0.863 -2.135,-1.568 -3.387,-2.122 -1.344,-0.594 -2.722,-0.954 -4.144,-1.081 -1.416,-0.125 -2.831,-0.006 -4.23,0.352 -1.984,0.504 -3.731,1.416 -5.252,2.734 -1.514,1.317 -2.711,2.96 -3.579,4.922 -0.749,1.693 -1.16,3.407 -1.239,5.14 -0.073,1.735 0.185,3.417 0.785,5.039 0.611,1.626 1.512,3.06 2.706,4.315 1.19,1.246 2.594,2.227 4.212,2.942 1.279,0.567 2.584,0.932 3.909,1.087 1.324,0.161 2.677,0.111 4.054,-0.141 z m 27.034,-11.444 -2.361,19.607 -7.884,-0.949 -0.624,5.182 21.65,2.607 0.624,-5.183 -7.849,-0.944 2.361,-19.608 z m 27.45,-0.262 4.392,24.578 5.868,-1.049 -4.393,-24.578 z m 31.74,3.894 c -0.989,-1.93 -1.253,-3.835 -0.79,-5.717 0.462,-1.882 1.519,-3.248 3.172,-4.096 1.663,-0.852 3.391,-0.919 5.181,-0.198 1.79,0.721 3.18,2.055 4.174,3.996 1,1.951 1.275,3.864 0.818,5.744 -0.457,1.878 -1.519,3.248 -3.183,4.1 -1.652,0.847 -3.379,0.906 -5.177,0.183 -1.797,-0.723 -3.195,-2.061 -4.195,-4.012 m -5.456,2.796 c 0.842,1.643 1.915,3.041 3.22,4.182 1.302,1.149 2.796,2.002 4.481,2.571 1.596,0.549 3.231,0.762 4.906,0.63 1.679,-0.128 3.27,-0.58 4.782,-1.354 1.511,-0.775 2.81,-1.811 3.898,-3.102 1.084,-1.288 1.882,-2.76 2.394,-4.403 0.522,-1.648 0.698,-3.33 0.515,-5.052 -0.176,-1.72 -0.694,-3.415 -1.547,-5.079 -0.713,-1.391 -1.577,-2.6 -2.59,-3.625 -1.02,-1.023 -2.169,-1.848 -3.453,-2.472 -1.82,-0.883 -3.727,-1.318 -5.714,-1.304 -1.986,0.006 -3.863,0.466 -5.631,1.373 -1.501,0.769 -2.789,1.799 -3.867,3.085 -1.074,1.283 -1.861,2.749 -2.362,4.387 -0.525,1.695 -0.705,3.406 -0.538,5.123 0.159,1.715 0.664,3.397 1.506,5.04 m 28.746,-31.692 19.495,16.867 0.373,-0.431 -0.846,-21.291 10.405,9.003 3.596,-4.156 -19.598,-16.955 -0.339,0.391 0.809,21.326 -10.299,-8.911 z"
             style="fill:#000000;fill-opacity:1;fill-rule:nonzero;stroke:none"
             id="path165" />
        </g>
      </g>
    </g>
  </g>
</svg>
