<?xml version="1.0" encoding="UTF-8" standalone="no"?>
<!-- Created with Inkscape (http://www.inkscape.org/) -->

<svg
   id="svg3029"
   version="1.1"
   inkscape:version="1.2.2 (b0a8486541, 2022-12-01)"
   width="800"
   height="800"
   xml:space="preserve"
   sodipodi:docname="shellphish-head.svg"
   inkscape:export-filename="../shellphish-white.svg"
   inkscape:export-xdpi="90"
   inkscape:export-ydpi="90"
   xmlns:inkscape="http://www.inkscape.org/namespaces/inkscape"
   xmlns:sodipodi="http://sodipodi.sourceforge.net/DTD/sodipodi-0.dtd"
   xmlns="http://www.w3.org/2000/svg"
   xmlns:svg="http://www.w3.org/2000/svg"
   xmlns:rdf="http://www.w3.org/1999/02/22-rdf-syntax-ns#"
   xmlns:cc="http://creativecommons.org/ns#"
   xmlns:dc="http://purl.org/dc/elements/1.1/"><metadata
     id="metadata3035"><rdf:RDF><cc:Work
         rdf:about=""><dc:format>image/svg+xml</dc:format><dc:type
           rdf:resource="http://purl.org/dc/dcmitype/StillImage" /></cc:Work></rdf:RDF></metadata><defs
     id="defs3033" /><sodipodi:namedview
     pagecolor="#ffffff"
     bordercolor="#666666"
     borderopacity="1"
     objecttolerance="10"
     gridtolerance="10"
     guidetolerance="10"
     inkscape:pageopacity="0"
     inkscape:pageshadow="2"
     inkscape:window-width="3072"
     inkscape:window-height="1599"
     id="namedview3031"
     showgrid="false"
     inkscape:snap-page="true"
     fit-margin-top="50"
     fit-margin-left="50"
     fit-margin-right="50"
     fit-margin-bottom="50"
     inkscape:zoom="0.99073662"
     inkscape:cx="427.45972"
     inkscape:cy="269.49645"
     inkscape:window-x="0"
     inkscape:window-y="0"
     inkscape:window-maximized="1"
     inkscape:current-layer="g3037"
     inkscape:showpageshadow="2"
     inkscape:pagecheckerboard="true"
     inkscape:deskcolor="#d1d1d1" /><g
     id="g3037"
     inkscape:groupmode="layer"
     inkscape:label="ink_ext_XXXXXX"
     transform="matrix(1.25,0,0,-1.25,99.517675,772.0675)"><g
       id="g3039"
       transform="matrix(0.11700942,0,0,0.11700942,-7.8319854,-50.726354)"
       inkscape:label="g3039"><path
         d="m 3081.98,3665.5 c -394.79,366.46 -1099.3,48.41 -928.92,-326.63 278.68,-613.43 712.17,87.63 812.8,47.79 227.79,-112.96 433.5,-175.26 750.87,-382.39 C 4543.6,2464.63 4195.66,1349.34 3879.29,932.969 3389.79,288.723 1739.16,750.594 1527.28,808.484 c -276.65,75.59 -401.13,255.906 -464.46,318.666 -32.28,31.99 98.18,19.46 308.65,10.91 45.47,-1.85 -4.11,169.33 -19.59,233.07 69.66,-55.77 313.08,-223.46 359.95,-223.07 135.84,1.14 82.44,-4.63 232.22,15.94 45.1,6.19 -162.55,282.81 -193.52,342.56 216.75,-143.4 317.38,-310.7 541.87,-302.73 109.45,29.08 282.55,79.32 380.54,130.45 511.56,266.92 954.23,680.06 897.95,844.45 -129.07,377.04 -1266.7,226.19 -1749.45,111.54 C 1564.69,2229.29 1240.57,2076.3 906.77,1936.75 851.789,1913.77 829.363,1669.87 790.656,1379.09 651.32,1466.73 613.664,1813.65 569.648,1798.79 254.547,1692.37 16.9141,1676.84 10.0586,1923.8 782.5,3117.2 2120.41,4513.96 3918,5370.34 L 3081.98,3665.5"
         style="fill:#ffffff;fill-opacity:1;fill-rule:nonzero;stroke:none"
         id="path3041"
         inkscape:connector-curvature="0" /></g></g></svg>
